<svg width="120" height="90" viewBox="0 0 120 90" fill="none" xmlns="http://www.w3.org/2000/svg">
<rect x="1" y="1" width="118" height="88" rx="14" fill="white" stroke="#FFF7E3" stroke-width="2"/>
<rect x="20.5" y="61.5" width="79" height="16" rx="8" stroke="#DF8822"/>
<path d="M54.9424 74L54.1624 71.936H50.1784L49.3984 74H48.5104L51.7384 65.6H52.6024L55.8304 74H54.9424ZM50.4784 71.144H53.8624L52.1704 66.644L50.4784 71.144ZM61.5918 65.6H62.3838V74H61.5918V72.824C61.0398 73.704 60.2318 74.144 59.1678 74.144C58.3118 74.144 57.5798 73.84 56.9718 73.232C56.3718 72.624 56.0718 71.88 56.0718 71C56.0718 70.12 56.3718 69.376 56.9718 68.768C57.5798 68.16 58.3118 67.856 59.1678 67.856C60.2318 67.856 61.0398 68.296 61.5918 69.176V65.6ZM57.5478 72.692C58.0038 73.148 58.5638 73.376 59.2278 73.376C59.8918 73.376 60.4518 73.148 60.9078 72.692C61.3638 72.228 61.5918 71.664 61.5918 71C61.5918 70.336 61.3638 69.776 60.9078 69.32C60.4518 68.856 59.8918 68.624 59.2278 68.624C58.5638 68.624 58.0038 68.856 57.5478 69.32C57.0918 69.776 56.8638 70.336 56.8638 71C56.8638 71.664 57.0918 72.228 57.5478 72.692ZM68.9807 65.6H69.7727V74H68.9807V72.824C68.4287 73.704 67.6207 74.144 66.5567 74.144C65.7007 74.144 64.9687 73.84 64.3607 73.232C63.7607 72.624 63.4607 71.88 63.4607 71C63.4607 70.12 63.7607 69.376 64.3607 68.768C64.9687 68.16 65.7007 67.856 66.5567 67.856C67.6207 67.856 68.4287 68.296 68.9807 69.176V65.6ZM64.9367 72.692C65.3927 73.148 65.9527 73.376 66.6167 73.376C67.2807 73.376 67.8407 73.148 68.2967 72.692C68.7527 72.228 68.9807 71.664 68.9807 71C68.9807 70.336 68.7527 69.776 68.2967 69.32C67.8407 68.856 67.2807 68.624 66.6167 68.624C65.9527 68.624 65.3927 68.856 64.9367 69.32C64.4807 69.776 64.2527 70.336 64.2527 71C64.2527 71.664 64.4807 72.228 64.9367 72.692Z" fill="#DF8822"/>
<path d="M29.1824 12.6L26.1464 17.556V21H25.3064V17.532L22.2824 12.6H23.2304L25.7384 16.716L28.2344 12.6H29.1824ZM33.7318 20.244C33.1238 20.844 32.3798 21.144 31.4998 21.144C30.6198 21.144 29.8718 20.844 29.2558 20.244C28.6478 19.636 28.3438 18.888 28.3438 18C28.3438 17.112 28.6478 16.368 29.2558 15.768C29.8718 15.16 30.6198 14.856 31.4998 14.856C32.3798 14.856 33.1238 15.16 33.7318 15.768C34.3478 16.368 34.6558 17.112 34.6558 18C34.6558 18.888 34.3478 19.636 33.7318 20.244ZM29.8198 19.692C30.2758 20.148 30.8358 20.376 31.4998 20.376C32.1638 20.376 32.7238 20.148 33.1798 19.692C33.6358 19.228 33.8638 18.664 33.8638 18C33.8638 17.336 33.6358 16.776 33.1798 16.32C32.7238 15.856 32.1638 15.624 31.4998 15.624C30.8358 15.624 30.2758 15.856 29.8198 16.32C29.3638 16.776 29.1358 17.336 29.1358 18C29.1358 18.664 29.3638 19.228 29.8198 19.692ZM39.9652 15H40.7572V21H39.9652V20.064C39.5172 20.784 38.8452 21.144 37.9492 21.144C37.2212 21.144 36.6452 20.924 36.2212 20.484C35.8052 20.036 35.5972 19.436 35.5972 18.684V15H36.3892V18.684C36.3892 19.22 36.5292 19.636 36.8092 19.932C37.0972 20.228 37.5012 20.376 38.0212 20.376C38.5972 20.376 39.0652 20.196 39.4252 19.836C39.7852 19.468 39.9652 18.904 39.9652 18.144V15ZM42.9846 15.996C43.3526 15.268 43.9846 14.904 44.8806 14.904V15.672C44.3366 15.672 43.8846 15.832 43.5246 16.152C43.1646 16.472 42.9846 16.976 42.9846 17.664V21H42.1926V15H42.9846V15.996ZM51.486 13.224C50.902 13.176 50.466 13.276 50.178 13.524C49.898 13.772 49.758 14.184 49.758 14.76V15H51.486V15.768H49.758V21H48.966V15.768H47.946V15H48.966V14.76C48.966 13.976 49.182 13.384 49.614 12.984C50.054 12.576 50.678 12.4 51.486 12.456V13.224ZM56.8865 15H57.6785V21H56.8865V19.824C56.3345 20.704 55.5265 21.144 54.4625 21.144C53.6065 21.144 52.8745 20.84 52.2665 20.232C51.6665 19.624 51.3665 18.88 51.3665 18C51.3665 17.12 51.6665 16.376 52.2665 15.768C52.8745 15.16 53.6065 14.856 54.4625 14.856C55.5265 14.856 56.3345 15.296 56.8865 16.176V15ZM52.8425 19.692C53.2985 20.148 53.8585 20.376 54.5225 20.376C55.1865 20.376 55.7465 20.148 56.2025 19.692C56.6585 19.228 56.8865 18.664 56.8865 18C56.8865 17.336 56.6585 16.776 56.2025 16.32C55.7465 15.856 55.1865 15.624 54.5225 15.624C53.8585 15.624 53.2985 15.856 52.8425 16.32C52.3865 16.776 52.1585 17.336 52.1585 18C52.1585 18.664 52.3865 19.228 52.8425 19.692ZM63.4354 15H64.2754L61.8154 21H60.8554L58.3954 15H59.2354L61.3354 20.172L63.4354 15ZM69.7862 20.244C69.1782 20.844 68.4342 21.144 67.5542 21.144C66.6742 21.144 65.9262 20.844 65.3102 20.244C64.7022 19.636 64.3982 18.888 64.3982 18C64.3982 17.112 64.7022 16.368 65.3102 15.768C65.9262 15.16 66.6742 14.856 67.5542 14.856C68.4342 14.856 69.1782 15.16 69.7862 15.768C70.4022 16.368 70.7102 17.112 70.7102 18C70.7102 18.888 70.4022 19.636 69.7862 20.244ZM65.8742 19.692C66.3302 20.148 66.8902 20.376 67.5542 20.376C68.2182 20.376 68.7782 20.148 69.2342 19.692C69.6902 19.228 69.9182 18.664 69.9182 18C69.9182 17.336 69.6902 16.776 69.2342 16.32C68.7782 15.856 68.2182 15.624 67.5542 15.624C66.8902 15.624 66.3302 15.856 65.8742 16.32C65.4182 16.776 65.1902 17.336 65.1902 18C65.1902 18.664 65.4182 19.228 65.8742 19.692ZM76.0195 15H76.8115V21H76.0195V20.064C75.5715 20.784 74.8995 21.144 74.0035 21.144C73.2755 21.144 72.6995 20.924 72.2755 20.484C71.8595 20.036 71.6515 19.436 71.6515 18.684V15H72.4435V18.684C72.4435 19.22 72.5835 19.636 72.8635 19.932C73.1515 20.228 73.5555 20.376 74.0755 20.376C74.6515 20.376 75.1195 20.196 75.4795 19.836C75.8395 19.468 76.0195 18.904 76.0195 18.144V15ZM79.039 15.996C79.407 15.268 80.039 14.904 80.935 14.904V15.672C80.391 15.672 79.939 15.832 79.579 16.152C79.219 16.472 79.039 16.976 79.039 17.664V21H78.247V15H79.039V15.996ZM82.5844 13.56C82.4724 13.672 82.3364 13.728 82.1764 13.728C82.0164 13.728 81.8804 13.672 81.7684 13.56C81.6564 13.448 81.6004 13.312 81.6004 13.152C81.6004 12.992 81.6564 12.856 81.7684 12.744C81.8804 12.632 82.0164 12.576 82.1764 12.576C82.3364 12.576 82.4724 12.632 82.5844 12.744C82.6964 12.856 82.7524 12.992 82.7524 13.152C82.7524 13.312 82.6964 13.448 82.5844 13.56ZM81.7804 21V15H82.5724V21H81.7804ZM87.193 15.768H85.465V19.404C85.465 19.732 85.529 19.968 85.657 20.112C85.785 20.248 85.977 20.32 86.233 20.328C86.489 20.328 86.809 20.32 87.193 20.304V21C86.353 21.128 85.721 21.068 85.297 20.82C84.881 20.572 84.673 20.1 84.673 19.404V15.768H83.413V15H84.673V13.56L85.465 13.32V15H87.193V15.768ZM90.6818 14.856C91.5698 14.856 92.2858 15.172 92.8298 15.804C93.3818 16.428 93.6578 17.168 93.6578 18.024C93.6578 18.112 93.6498 18.236 93.6338 18.396H88.3658C88.4458 19.004 88.7018 19.488 89.1338 19.848C89.5738 20.2 90.1138 20.376 90.7538 20.376C91.2098 20.376 91.6018 20.284 91.9298 20.1C92.2658 19.908 92.5178 19.66 92.6858 19.356L93.3818 19.764C93.1178 20.188 92.7578 20.524 92.3018 20.772C91.8458 21.02 91.3258 21.144 90.7418 21.144C89.7978 21.144 89.0298 20.848 88.4378 20.256C87.8458 19.664 87.5498 18.912 87.5498 18C87.5498 17.104 87.8418 16.356 88.4258 15.756C89.0098 15.156 89.7618 14.856 90.6818 14.856ZM90.6818 15.624C90.0578 15.624 89.5338 15.812 89.1098 16.188C88.6938 16.556 88.4458 17.036 88.3658 17.628H92.8418C92.7618 16.996 92.5178 16.504 92.1098 16.152C91.7018 15.8 91.2258 15.624 90.6818 15.624ZM38.4578 33.244C37.8498 33.844 37.1058 34.144 36.2258 34.144C35.3458 34.144 34.5978 33.844 33.9818 33.244C33.3738 32.636 33.0698 31.888 33.0698 31C33.0698 30.112 33.3738 29.368 33.9818 28.768C34.5978 28.16 35.3458 27.856 36.2258 27.856C37.1058 27.856 37.8498 28.16 38.4578 28.768C39.0738 29.368 39.3818 30.112 39.3818 31C39.3818 31.888 39.0738 32.636 38.4578 33.244ZM34.5458 32.692C35.0018 33.148 35.5618 33.376 36.2258 33.376C36.8898 33.376 37.4498 33.148 37.9058 32.692C38.3618 32.228 38.5898 31.664 38.5898 31C38.5898 30.336 38.3618 29.776 37.9058 29.32C37.4498 28.856 36.8898 28.624 36.2258 28.624C35.5618 28.624 35.0018 28.856 34.5458 29.32C34.0898 29.776 33.8618 30.336 33.8618 31C33.8618 31.664 34.0898 32.228 34.5458 32.692ZM41.2591 28.996C41.6271 28.268 42.2591 27.904 43.1551 27.904V28.672C42.6111 28.672 42.1591 28.832 41.7991 29.152C41.4391 29.472 41.2591 29.976 41.2591 30.664V34H40.4671V28H41.2591V28.996ZM48.7973 25.6H49.5893V34H48.7973V32.824C48.2453 33.704 47.4373 34.144 46.3733 34.144C45.5173 34.144 44.7853 33.84 44.1773 33.232C43.5773 32.624 43.2773 31.88 43.2773 31C43.2773 30.12 43.5773 29.376 44.1773 28.768C44.7853 28.16 45.5173 27.856 46.3733 27.856C47.4373 27.856 48.2453 28.296 48.7973 29.176V25.6ZM44.7533 32.692C45.2093 33.148 45.7693 33.376 46.4333 33.376C47.0973 33.376 47.6573 33.148 48.1133 32.692C48.5693 32.228 48.7973 31.664 48.7973 31C48.7973 30.336 48.5693 29.776 48.1133 29.32C47.6573 28.856 47.0973 28.624 46.4333 28.624C45.7693 28.624 45.2093 28.856 44.7533 29.32C44.2973 29.776 44.0693 30.336 44.0693 31C44.0693 31.664 44.2973 32.228 44.7533 32.692ZM53.7982 27.856C54.6862 27.856 55.4022 28.172 55.9462 28.804C56.4982 29.428 56.7742 30.168 56.7742 31.024C56.7742 31.112 56.7662 31.236 56.7502 31.396H51.4822C51.5622 32.004 51.8182 32.488 52.2502 32.848C52.6902 33.2 53.2302 33.376 53.8702 33.376C54.3262 33.376 54.7182 33.284 55.0462 33.1C55.3822 32.908 55.6342 32.66 55.8022 32.356L56.4982 32.764C56.2342 33.188 55.8742 33.524 55.4182 33.772C54.9622 34.02 54.4422 34.144 53.8582 34.144C52.9142 34.144 52.1462 33.848 51.5542 33.256C50.9622 32.664 50.6662 31.912 50.6662 31C50.6662 30.104 50.9582 29.356 51.5422 28.756C52.1262 28.156 52.8782 27.856 53.7982 27.856ZM53.7982 28.624C53.1742 28.624 52.6502 28.812 52.2262 29.188C51.8102 29.556 51.5622 30.036 51.4822 30.628H55.9582C55.8782 29.996 55.6342 29.504 55.2262 29.152C54.8182 28.8 54.3422 28.624 53.7982 28.624ZM58.586 28.996C58.954 28.268 59.586 27.904 60.482 27.904V28.672C59.938 28.672 59.486 28.832 59.126 29.152C58.766 29.472 58.586 29.976 58.586 30.664V34H57.794V28H58.586V28.996ZM66.8834 34.144C65.9794 34.144 65.2274 33.844 64.6274 33.244C64.0274 32.636 63.7274 31.888 63.7274 31C63.7274 30.112 64.0274 29.368 64.6274 28.768C65.2274 28.16 65.9794 27.856 66.8834 27.856C67.4754 27.856 68.0074 28 68.4794 28.288C68.9514 28.568 69.2954 28.948 69.5114 29.428L68.8634 29.8C68.7034 29.44 68.4434 29.156 68.0834 28.948C67.7314 28.732 67.3314 28.624 66.8834 28.624C66.2194 28.624 65.6594 28.856 65.2034 29.32C64.7474 29.776 64.5194 30.336 64.5194 31C64.5194 31.664 64.7474 32.228 65.2034 32.692C65.6594 33.148 66.2194 33.376 66.8834 33.376C67.3314 33.376 67.7314 33.272 68.0834 33.064C68.4354 32.848 68.7114 32.56 68.9114 32.2L69.5714 32.584C69.3234 33.064 68.9594 33.444 68.4794 33.724C67.9994 34.004 67.4674 34.144 66.8834 34.144ZM75.5699 28H76.3619V34H75.5699V32.824C75.0179 33.704 74.2099 34.144 73.1459 34.144C72.2899 34.144 71.5579 33.84 70.9499 33.232C70.3499 32.624 70.0499 31.88 70.0499 31C70.0499 30.12 70.3499 29.376 70.9499 28.768C71.5579 28.16 72.2899 27.856 73.1459 27.856C74.2099 27.856 75.0179 28.296 75.5699 29.176V28ZM71.5259 32.692C71.9819 33.148 72.5419 33.376 73.2059 33.376C73.8699 33.376 74.4299 33.148 74.8859 32.692C75.3419 32.228 75.5699 31.664 75.5699 31C75.5699 30.336 75.3419 29.776 74.8859 29.32C74.4299 28.856 73.8699 28.624 73.2059 28.624C72.5419 28.624 71.9819 28.856 71.5259 29.32C71.0699 29.776 70.8419 30.336 70.8419 31C70.8419 31.664 71.0699 32.228 71.5259 32.692ZM80.6068 27.856C81.3348 27.856 81.9068 28.08 82.3228 28.528C82.7468 28.968 82.9588 29.564 82.9588 30.316V34H82.1668V30.316C82.1668 29.78 82.0228 29.364 81.7348 29.068C81.4548 28.772 81.0548 28.624 80.5348 28.624C79.9588 28.624 79.4908 28.808 79.1308 29.176C78.7708 29.536 78.5908 30.096 78.5908 30.856V34H77.7988V28H78.5908V28.936C79.0388 28.216 79.7108 27.856 80.6068 27.856ZM43.399 40.856C44.255 40.856 44.983 41.16 45.583 41.768C46.191 42.376 46.495 43.12 46.495 44C46.495 44.88 46.191 45.624 45.583 46.232C44.983 46.84 44.255 47.144 43.399 47.144C42.335 47.144 41.527 46.704 40.975 45.824V47H40.183V38.6H40.975V42.176C41.527 41.296 42.335 40.856 43.399 40.856ZM41.659 45.692C42.115 46.148 42.675 46.376 43.339 46.376C44.003 46.376 44.563 46.148 45.019 45.692C45.475 45.228 45.703 44.664 45.703 44C45.703 43.336 45.475 42.776 45.019 42.32C44.563 41.856 44.003 41.624 43.339 41.624C42.675 41.624 42.115 41.856 41.659 42.32C41.203 42.776 40.975 43.336 40.975 44C40.975 44.664 41.203 45.228 41.659 45.692ZM50.344 40.856C51.232 40.856 51.948 41.172 52.492 41.804C53.044 42.428 53.32 43.168 53.32 44.024C53.32 44.112 53.312 44.236 53.296 44.396H48.028C48.108 45.004 48.364 45.488 48.796 45.848C49.236 46.2 49.776 46.376 50.416 46.376C50.872 46.376 51.264 46.284 51.592 46.1C51.928 45.908 52.18 45.66 52.348 45.356L53.044 45.764C52.78 46.188 52.42 46.524 51.964 46.772C51.508 47.02 50.988 47.144 50.404 47.144C49.46 47.144 48.692 46.848 48.1 46.256C47.508 45.664 47.212 44.912 47.212 44C47.212 43.104 47.504 42.356 48.088 41.756C48.672 41.156 49.424 40.856 50.344 40.856ZM50.344 41.624C49.72 41.624 49.196 41.812 48.772 42.188C48.356 42.556 48.108 43.036 48.028 43.628H52.504C52.424 42.996 52.18 42.504 51.772 42.152C51.364 41.8 50.888 41.624 50.344 41.624ZM59.9078 40.856C60.6358 40.856 61.2078 41.08 61.6238 41.528C62.0478 41.968 62.2598 42.564 62.2598 43.316V47H61.4678V43.316C61.4678 42.78 61.3238 42.364 61.0358 42.068C60.7558 41.772 60.3558 41.624 59.8358 41.624C59.2598 41.624 58.7918 41.808 58.4318 42.176C58.0718 42.536 57.8918 43.096 57.8918 43.856V47H57.0998V38.6H57.8918V41.936C58.3398 41.216 59.0118 40.856 59.9078 40.856ZM66.3232 40.856C67.2112 40.856 67.9272 41.172 68.4712 41.804C69.0232 42.428 69.2992 43.168 69.2992 44.024C69.2992 44.112 69.2912 44.236 69.2752 44.396H64.0072C64.0872 45.004 64.3432 45.488 64.7752 45.848C65.2152 46.2 65.7552 46.376 66.3952 46.376C66.8512 46.376 67.2432 46.284 67.5712 46.1C67.9072 45.908 68.1592 45.66 68.3272 45.356L69.0232 45.764C68.7592 46.188 68.3992 46.524 67.9432 46.772C67.4872 47.02 66.9672 47.144 66.3832 47.144C65.4392 47.144 64.6712 46.848 64.0792 46.256C63.4872 45.664 63.1912 44.912 63.1912 44C63.1912 43.104 63.4832 42.356 64.0672 41.756C64.6512 41.156 65.4032 40.856 66.3232 40.856ZM66.3232 41.624C65.6992 41.624 65.1752 41.812 64.7512 42.188C64.3352 42.556 64.0872 43.036 64.0072 43.628H68.4832C68.4032 42.996 68.1592 42.504 67.7512 42.152C67.3432 41.8 66.8672 41.624 66.3232 41.624ZM71.111 41.996C71.479 41.268 72.111 40.904 73.007 40.904V41.672C72.463 41.672 72.011 41.832 71.651 42.152C71.291 42.472 71.111 42.976 71.111 43.664V47H70.319V41H71.111V41.996ZM76.2611 40.856C77.1491 40.856 77.8651 41.172 78.4091 41.804C78.9611 42.428 79.2371 43.168 79.2371 44.024C79.2371 44.112 79.2291 44.236 79.2131 44.396H73.9451C74.0251 45.004 74.2811 45.488 74.7131 45.848C75.1531 46.2 75.6931 46.376 76.3331 46.376C76.7891 46.376 77.1811 46.284 77.5091 46.1C77.8451 45.908 78.0971 45.66 78.2651 45.356L78.9611 45.764C78.6971 46.188 78.3371 46.524 77.8811 46.772C77.4251 47.02 76.9051 47.144 76.3211 47.144C75.3771 47.144 74.6091 46.848 74.0171 46.256C73.4251 45.664 73.1291 44.912 73.1291 44C73.1291 43.104 73.4211 42.356 74.0051 41.756C74.5891 41.156 75.3411 40.856 76.2611 40.856ZM76.2611 41.624C75.6371 41.624 75.1131 41.812 74.6891 42.188C74.2731 42.556 74.0251 43.036 73.9451 43.628H78.4211C78.3411 42.996 78.0971 42.504 77.6891 42.152C77.2811 41.8 76.8051 41.624 76.2611 41.624Z" fill="#868686"/>
</svg>
